<svg id="e9378c99-d606-4474-b377-57ae4c14e8e3" data-name="Layer 1" xmlns="http://www.w3.org/2000/svg" viewBox="0 0 435.67 434.36"><defs><style>.a5bd303a-cd6a-4b8c-b85c-e55d5a4fa2ba{fill:#154664;}</style></defs><title>btns</title><g id="82ae5a94-8623-4707-99c5-d80d8f817d57" data-name="Icon-Trash"><polygon id="c9648681-48f5-4565-a28c-a7eab10792dd" data-name="Fill-6" class="a5bd303a-cd6a-4b8c-b85c-e55d5a4fa2ba" points="149.62 134.87 176.9 134.87 176.9 353.15 149.62 353.15 149.62 134.87"/><polygon id="a2bd990b-c3fc-4759-8758-0361e0cb3500" data-name="Fill-7" class="a5bd303a-cd6a-4b8c-b85c-e55d5a4fa2ba" points="204.19 134.87 231.48 134.87 231.48 353.15 204.19 353.15 204.19 134.87"/><polygon id="d2f66fba-a20e-46ca-a67b-996ce2e6053b" data-name="Fill-8" class="a5bd303a-cd6a-4b8c-b85c-e55d5a4fa2ba" points="258.76 134.87 286.05 134.87 286.05 353.15 258.76 353.15 258.76 134.87"/><polygon id="d48db59d-d1bf-47fa-aa7a-4ef129781955" data-name="Fill-9" class="a5bd303a-cd6a-4b8c-b85c-e55d5a4fa2ba" points="40.47 53.01 395.19 53.01 395.19 80.3 40.47 80.3 40.47 53.01"/><path id="78af2d01-6983-4430-bef0-7304d4c20496" data-name="Fill-10" class="a5bd303a-cd6a-4b8c-b85c-e55d5a4fa2ba" d="M285.14,66.65H259.67V39.37a14.37,14.37,0,0,0-14.55-14.56H190.55A14.37,14.37,0,0,0,176,39.37V66.65H150.53V39.37a40.37,40.37,0,0,1,40-40h54.57a40.37,40.37,0,0,1,40,40V66.65"/><path id="2cec1456-8ee8-4270-ba5a-b539a7896dda" data-name="Fill-11" class="a5bd303a-cd6a-4b8c-b85c-e55d5a4fa2ba" d="M299.69,435H136c-21.83,0-40.93-18.19-42.75-40L67.76,67.56l27.29-1.82,25.46,327.43c.91,8.19,8.19,14.56,15.47,14.56H299.69c8.19,0,15.46-7.28,15.46-14.56L340.62,65.74l27.29,1.82L342.44,395c-1.82,22.74-20.92,40-42.75,40"/></g></svg>